<svg viewBox="0 0 760.047 1066.744" xmlns="http://www.w3.org/2000/svg"><path d="M293.552 21.333h172.942c114.313.13 206.946 92.763 207.076 207.063v384.58H81.926V226.77C86.33 112.963 179.2 22.256 293.463 21.333h.09zm311.75 523.378v-316.3c-.077-76.632-62.177-138.732-138.8-138.81H293.55c-77.493.993-140.298 62.51-143.35 139.394l-.01.28v315.438zm-466.488 0H616.68c78.746 1.063 142.3 64.616 143.36 143.26v.1c.005.31.007.675.007 1.04 0 26.735-10.838 50.938-28.36 68.457-17.517 17.522-41.72 28.36-68.455 28.36-.366 0-.73-.003-1.095-.007H97.855c-.31.004-.674.006-1.04.006-26.734 0-50.937-10.838-68.456-28.36C10.836 740.05 0 715.847 0 689.112c0-.365.002-.73.006-1.094V687.52c0-38.567 15.018-73.625 39.527-99.646l-.07.074c24.796-26.63 60.054-43.236 99.19-43.236h.17-.01zm523.378 172.943c.492.03 1.068.05 1.647.05 7.727 0 14.723-3.133 19.788-8.196 5.063-5.065 8.195-12.06 8.195-19.79 0-.578-.018-1.154-.052-1.725l.005.078c-1.062-41.04-34.055-74.03-74.994-75.09l-.1-.003H138.815c-19.617.003-37.286 8.34-49.66 21.666l-.038.043c-12.914 13.79-20.846 32.384-20.846 52.83 0 .196 0 .39.002.584v-.03c-.03.492-.05 1.068-.05 1.647 0 7.728 3.133 14.724 8.196 19.79 5.065 5.062 12.06 8.194 19.79 8.194.578 0 1.154-.017 1.725-.05l-.078.003zm-248.036 241.21H345.89v-241.21h68.266zm-207.075-72.82c43.987 0 79.645 35.66 79.645 79.645s-35.658 79.644-79.644 79.644c-43.985 0-79.643-35.658-79.643-79.644 0-43.986 35.658-79.644 79.644-79.644zm0 91.023c6.285 0 11.38-5.094 11.38-11.378s-5.095-11.378-11.38-11.378c-6.283 0-11.377 5.094-11.377 11.378s5.094 11.378 11.378 11.378zm345.885-91.022c43.986 0 79.644 35.658 79.644 79.644s-35.66 79.644-79.645 79.644c-43.986 0-79.644-35.658-79.644-79.644 0-43.986 35.66-79.644 79.645-79.644zm0 91.022c6.284 0 11.378-5.094 11.378-11.378s-5.094-11.378-11.378-11.378-11.378 5.094-11.378 11.378 5.094 11.378 11.378 11.378zm0-18.204H207.08v-68.267h345.885z"/></svg>